# xmcd
#
# Track frame offsets:
#	150
#	22601
#	36860
#	52453
#	71627
#	87241
#	98988
#	114740
#	130290
#	149799
#	172250
#	186509
#	202102
#	221276
#	236890
#	248637
#	264389
#	279939
#
# Disc length: 3992
#
# Revision: 1
# Processed by: cddbd v1.5.2PL0 Copyright (c) Steve Scherf et al.
# Submitted via: kJams Pro (development) 1.0patch45.9
#
DISCID=1d0f9612
DTITLE=Various Artist - NSC 3023
DYEAR=1996
DGENRE=Country
TTITLE0=Alan Jackson - Where Were You
TTITLE1=Lee Ann Womack - Does My Ring Burn Your Finger
TTITLE2=Charlie Daniels Band - This Ain't No Rag, It's A Flag
TTITLE3=Martina McBride - Blessed
TTITLE4=Phil Vassar - That's When I Love You
TTITLE5=Diamond Rio - That's Just That
TTITLE6=Tammy Cochran - I Cry
TTITLE7=Steve Azar - I Don't Have To Be Me (Til' Monday}
TTITLE8=Mark Willis and Jamie O'Neal - I'm Not Gonna Do Anything Without You
TTITLE9=Alan Jackson - Vocals - Where Were You
TTITLE10=Lee Ann Womack - Vocals - Does My Ring Burn Your Finger
TTITLE11=Charlie Daniel Band - Vocals - This Ain't No Rag, It's A Flag
TTITLE12=Martina McBride - Vocals - Blessed
TTITLE13=Phil Vassar - Vocals - That's When I Love You
TTITLE14=Diamond Rio - Vocals - That's Just That
TTITLE15=Tammy Cochran - Vocals - I Cry
TTITLE16=Steve Azar - Vocals - I Don't Have To Be Me (Til' Monday)
TTITLE17=Mark Willis and Jamie O'Neal - I'm Not Gonna To Do Anything Without You
EXTD=
EXTT0=
EXTT1=
EXTT2=
EXTT3=
EXTT4=
EXTT5=
EXTT6=
EXTT7=
EXTT8=
EXTT9=
EXTT10=
EXTT11=
EXTT12=
EXTT13=
EXTT14=
EXTT15=
EXTT16=
EXTT17=
PLAYORDER=
